<?xml version="1.0" encoding="UTF-8"?>
<svg id="Layer_1" xmlns="http://www.w3.org/2000/svg" version="1.1" viewBox="0 0 2000.64 739.7">
  <!-- Generator: Adobe Illustrator 30.3.0, SVG Export Plug-In . SVG Version: 2.1.3 Build 182)  -->
  <defs>
    <style>
      .st0 {
        fill: #fff;
      }
    </style>
  </defs>
  <path class="st0" d="M124.88,294.66l91.36,295.85h1.68l91.35-295.85h118.17l-146.67,433.3h-132.42L0,294.66h124.88Z"/>
  <path class="st0" d="M856.05,511.73c0,139.96-91.35,227.97-224.61,227.97s-223.77-91.36-223.77-227.97,88-228.8,223.77-228.8,224.61,91.35,224.61,228.8h0ZM631.44,650.02c70.4,0,105.6-52.8,105.6-138.29,0-70.4-24.31-139.13-106.44-139.13-66.21,0-103.92,50.29-103.92,139.13s36.88,138.29,104.76,138.29Z"/>
  <path class="st0" d="M974.47,294.66l76.27,113.14,64.54,89.68,160.08,230.48h-135.78l-90.52-136.61-90.52,136.61h-133.26l155.89-227.97-142.48-205.34h135.78Z"/>
  <path class="st0" d="M1000.21,294.66h66.3s-9.69,7.9-2.79,17.78,113.36,162.16,113.36,162.16h3.83s98.64-138.28,107.88-156.09,1.31-23.85,1.31-23.85h51.08l-153.25,196.02,166.02,236.83h-60.06s5.4-5.11-3.07-17.23-290.61-415.62-290.61-415.62h0Z"/>
  <path class="st0" d="M1671.37,491.79c4.92,9.85,7.39,18.65,7.39,26.38,0,33.77-23.4,72.65-70.18,116.62-68.25,64.37-126.29,96.57-174.13,96.57-41.16,0-61.74-23.39-61.74-70.18,0-52.77,16.09-108.17,48.29-166.21,32.19-58.04,73.43-105.88,123.74-143.53,61.21-45.72,115.73-68.6,163.58-68.6,27.78,0,41.69,10.21,41.69,30.61,0,13.37-6.69,29.47-20.05,48.28-13.37,18.82-30.08,35.8-50.13,50.92-18.65,13.72-42.3,26.39-70.97,37.99-28.67,11.61-50.74,17.42-66.22,17.42-16.54,0-27.97-9.14-34.3-27.44,14.78,2.11,26.56,3.16,35.35,3.16,35.18,0,67.62-10.11,97.36-30.34,29.72-20.22,44.59-42.12,44.59-65.7,0-16.89-10.91-25.33-32.72-25.33-39.05,0-78.97,23.93-119.78,71.76-28.85,33.77-52.59,73.17-71.23,118.2-18.65,45.03-27.97,85.14-27.97,120.31s15.12,54.35,45.38,54.35c33.07,0,67.45-18.21,103.16-54.62,35.7-36.41,65.34-83.28,88.91-140.63h-.02Z"/>
  <path class="st0" d="M2000.64,0c0,42.92-28.49,128.93-85.49,258.03-98.85,224.79-149.15,355.31-150.91,391.53-.71,15.83,5.63,23.4,19,22.69,10.2-.34,28.31-10.73,54.35-31.13l6.33-4.75,10.02,13.72c-56.64,49.6-98.14,74.4-124.53,74.4-21.11,0-31.66-14.78-31.66-44.33,0-22.86,7.3-54.88,21.9-96.04,14.59-41.16,49.51-127.87,104.74-260.15l50.13-120.31c30.25-72.11,45.38-114.15,45.38-126.11,0-9.5-5.46-14.25-16.36-14.25-3.87,0-13.19,2.29-27.96,6.86-1.76.71-4.4,1.58-7.92,2.64l-5.28-15.3,7.92-3.17c60.86-23.2,104.3-41.31,130.34-54.33h0Z"/>
</svg>